<svg xmlns="http://www.w3.org/2000/svg" version="1.1" xmlns:xlink="http://www.w3.org/1999/xlink" viewBox="0 0 200 200"><rect width="200" height="200" fill="url('#gradient')"></rect><defs><linearGradient id="gradient" gradientTransform="rotate(45 0.5 0.5)"><stop offset="0%" stop-color="#3c3d3e"></stop><stop offset="100%" stop-color="#b5b4b5"></stop></linearGradient></defs><g><g fill="#c52727" transform="matrix(4.7934156378600825,0,0,4.7934156378600825,7.3183687362160725,134.061591370508)" stroke="#f71412" stroke-width="0.2"><path d="M12.24-14.22L12.24-11.57L7.97-11.57L7.97 0L4.54 0L4.54-11.57L0.35-11.57L0.35-14.22L12.24-14.22ZM15.62-7.47L15.64-7.49Q15.07-8.31 14.74-9.05Q14.41-9.79 14.41-10.59L14.41-10.59Q14.41-12.30 15.53-13.36Q16.64-14.42 18.44-14.42L18.44-14.42Q20.05-14.42 21.10-13.44Q22.16-12.46 22.16-11.01L22.16-11.01Q22.16-9.19 20.16-7.78L20.16-7.78L19.41-7.27L21.60-4.76Q22.14-5.83 22.14-7.11L22.14-7.11L24.90-7.11Q24.90-4.23 23.57-2.49L23.57-2.49L25.74 0L22.07 0L21.41-0.75Q20.59-0.26 19.73-0.03Q18.88 0.21 17.80 0.21L17.80 0.21Q15.69 0.21 14.42-0.90Q13.15-2.01 13.15-3.82L13.15-3.82Q13.15-4.80 13.66-5.61Q14.16-6.41 15.62-7.47L15.62-7.47ZM18.02-2.33L18.02-2.33Q18.88-2.33 19.66-2.73L19.66-2.73L17.10-5.64L17.01-5.59Q16.46-4.90 16.46-4.04L16.46-4.04Q16.46-3.33 16.90-2.83Q17.35-2.33 18.02-2.33ZM17.26-10.63L17.26-10.63Q17.26-9.94 18.00-8.96L18.00-8.96L18.65-9.38Q19.10-9.67 19.31-9.98Q19.51-10.29 19.51-10.77L19.51-10.77Q19.51-11.22 19.20-11.55Q18.89-11.88 18.43-11.88L18.43-11.88Q17.88-11.88 17.57-11.54Q17.26-11.19 17.26-10.63ZM38.32-14.22L38.32-11.57L34.05-11.57L34.05 0L30.63 0L30.63-11.57L26.44-11.57L26.44-14.22L38.32-14.22Z"></path></g></g></svg>